# xmcd
#
# Track frame offsets:
#	150
#	19725
#	42300
#	62025
#
# Disc length: 1214 seconds
#
# Revision: 1
# Processed by: cddbd v1.5.1PL0 Copyright (c) Steve Scherf et al.
# Submitted via: CDex 1.50Beta5
#
DISCID=2d04bc04
DTITLE=千葉紗子 - 円盤皇女ワるきゅーレ 十二月の夜想曲 キャラクターマキシ4
DYEAR=2003
DGENRE=Pop
TTITLE0=きれいな涙〜きれいなナミダ やさしいキモチ〜
TTITLE1=きれいな涙〜きれいなナミダ やさしいキモチ〜(Crystal Tear Version)
TTITLE2=きれいな涙〜きれいなナミダ やさしいキモチ〜(オリジナル・カラオケ)
TTITLE3=投函されないラブレター
EXTD=
EXTT0=
EXTT1=
EXTT2=
EXTT3=
PLAYORDER=
